<?xml version="1.0" encoding="utf-8"?>
<!-- Generator: Adobe Illustrator 18.0.0, SVG Export Plug-In . SVG Version: 6.00 Build 0)  -->
<!DOCTYPE svg PUBLIC "-//W3C//DTD SVG 1.1//EN" "http://www.w3.org/Graphics/SVG/1.1/DTD/svg11.dtd">
<svg version="1.1" id="Layer_1" xmlns="http://www.w3.org/2000/svg" xmlns:xlink="http://www.w3.org/1999/xlink" x="0px" y="0px"
	 viewBox="0 0 20 40" enable-background="new 0 0 20 40" xml:space="preserve">
<path fill="#FFFFFF" d="M10,4.5c3,0,5.5,2.5,5.5,5.5S13,15.5,10,15.5S4.5,13,4.5,10S7,4.5,10,4.5 M10,2.5c-4.1,0-7.5,3.4-7.5,7.5
	s3.4,7.5,7.5,7.5s7.5-3.4,7.5-7.5S14.1,2.5,10,2.5L10,2.5z"/>
<path fill="#FFFFFF" d="M10,24.5c3,0,5.5,2.5,5.5,5.5S13,35.5,10,35.5S4.5,33,4.5,30S7,24.5,10,24.5"/>
</svg>
